<?xml version="1.0" standalone="no"?>
<!DOCTYPE svg PUBLIC "-//W3C//DTD SVG 20010904//EN"
 "http://www.w3.org/TR/2001/REC-SVG-20010904/DTD/svg10.dtd">
<svg version="1.0" xmlns="http://www.w3.org/2000/svg"
 width="800.000000pt" height="800.000000pt" viewBox="0 0 800.000000 800.000000"
 preserveAspectRatio="xMidYMid meet">

<g transform="translate(0.000000,800.000000) scale(0.100000,-0.100000)"
fill="#000000" stroke="none">
<path d="M5414 6565 c-119 -21 -235 -60 -361 -121 -386 -188 -645 -512 -777
-971 -54 -187 -96 -477 -96 -661 0 -41 -3 -72 -7 -70 -5 2 -57 30 -118 63
-331 179 -658 289 -970 326 -134 16 -383 6 -503 -20 -269 -57 -519 -183 -739
-371 -468 -400 -703 -1172 -557 -1829 129 -576 490 -1048 989 -1292 459 -224
925 -230 1406 -18 537 236 908 682 995 1193 24 144 15 626 -20 1026 -77 885
-44 1393 111 1703 183 366 512 647 913 781 182 60 252 71 468 71 105 0 192 1
192 3 0 8 -211 102 -284 126 -147 51 -241 67 -406 71 -106 3 -181 0 -236 -10z
m-1829 -2009 c148 -31 343 -97 492 -166 l112 -52 5 -72 c13 -159 38 -833 38
-1006 -1 -427 -99 -699 -336 -935 -180 -179 -444 -324 -711 -391 -139 -35
-351 -44 -496 -19 -308 51 -565 196 -744 418 -232 287 -351 656 -317 981 43
409 231 702 613 956 250 165 525 273 789 310 36 5 148 7 250 5 149 -3 208 -9
305 -29z"/>
<path d="M6125 6046 c-336 -56 -618 -217 -825 -471 -188 -231 -251 -396 -281
-735 -18 -211 -6 -656 28 -995 24 -250 27 -320 27 -650 0 -409 -11 -524 -73
-760 -122 -465 -480 -856 -1026 -1121 -128 -63 -356 -143 -468 -165 -32 -6
-57 -13 -54 -15 12 -12 236 -34 347 -34 345 0 665 101 965 303 123 84 323 285
404 407 272 409 390 964 346 1620 -8 124 -19 266 -25 315 -42 385 -44 426 -45
760 0 313 2 348 22 439 55 246 234 486 539 718 185 141 461 295 600 335 35 10
64 21 64 24 0 28 -412 47 -545 25z"/>
</g>
</svg>
